<svg id="Layer_1" data-name="Layer 1" xmlns="http://www.w3.org/2000/svg" viewBox="0 0 480.17 125.51"><defs><style>.cls-1{fill:#fff;}</style></defs><title>logo-white</title><path class="cls-1" d="M15.43,142q-3.56-3.56-3.56-9.67v-95q0-5.93,3.22-9.16T24.25,25H66.83q19.5,0,30.36,9.84T108,62.33Q108,80,97.19,89.81T66.83,99.65H38.33v32.73q0,6.11-3.56,9.67t-9.67,3.56Q19,145.61,15.43,142Zm48-62.42q19.84,0,19.84-17.13,0-17.3-19.84-17.3H38.33V79.63Z" transform="translate(-11.87 -20.44)"/><path class="cls-1" d="M179.2,61.91q3,2.63,3,7.89,0,5.6-2.71,8.31t-9.67,3.39L164.7,82q-9.33,1-13.48,6.11t-4.16,13.06v32.4q0,5.94-3.65,9a13.66,13.66,0,0,1-9.07,3.05,13.91,13.91,0,0,1-9.24-3.05q-3.65-3.05-3.65-9V71.32q0-5.6,3.73-8.65a13.74,13.74,0,0,1,9-3.05,12.42,12.42,0,0,1,8.48,3A10.36,10.36,0,0,1,146,70.81v4.58a23.58,23.58,0,0,1,9.24-11.19,28.66,28.66,0,0,1,13.48-4.41l2.37-.17Q176.23,59.28,179.2,61.91Z" transform="translate(-11.87 -20.44)"/><path class="cls-1" d="M204.55,140.61a37.44,37.44,0,0,1-15.44-15.1q-5.43-9.75-5.43-23t5.43-23a36.93,36.93,0,0,1,15.44-15q10-5.26,23.24-5.26T251,64.54a37,37,0,0,1,15.43,15q5.43,9.76,5.43,23t-5.43,23A37.47,37.47,0,0,1,251,140.61Q241,146,227.79,146T204.55,140.61Zm41.89-38.08q0-12-4.83-18t-13.82-5.94q-18.66,0-18.66,23.92t18.66,23.92Q246.45,126.45,246.45,102.53Z" transform="translate(-11.87 -20.44)"/><path class="cls-1" d="M373.15,63.86A9,9,0,0,1,376,71v62.59q0,5.94-3.65,9a13.91,13.91,0,0,1-9.24,3.05,13.65,13.65,0,0,1-9.07-3.05q-3.65-3.05-3.65-9V80.48H318.87V133.4q0,5.94-3.65,9a13.66,13.66,0,0,1-9.07,3.05,13.91,13.91,0,0,1-9.24-3.05q-3.65-3.05-3.65-9V80.48h-6.78q-11.37,0-11.36-9.5,0-9.67,11.36-9.67h6.78q.17-15.94,9.16-25.27T327,25.19l3.56-.34a20.4,20.4,0,0,1,3.05-.17q10.51,0,10.52,9a9.29,9.29,0,0,1-2.46,6.87,9.7,9.7,0,0,1-6.19,2.8l-3.56.34q-7,.68-10,4.33t-3.05,10.43v2.88H364.5Q370.26,61.31,373.15,63.86ZM352.63,42.57a12,12,0,0,1-3.9-9.41,11.77,11.77,0,0,1,3.9-9.24q3.9-3.47,10.52-3.48t10.6,3.48a11.67,11.67,0,0,1,4,9.24,12,12,0,0,1-3.9,9.41q-3.9,3.48-10.69,3.48Q356.53,46,352.63,42.57Z" transform="translate(-11.87 -20.44)"/><path class="cls-1" d="M449.47,129.5q2.37,2.21,2.37,6.45a8.35,8.35,0,0,1-3.9,7.46q-3.9,2.54-11.19,2L432,145.1q-29.68-2.37-29.68-31V80.48h-6.78q-5.6,0-8.48-2.46a8.74,8.74,0,0,1-2.88-7q0-4.75,2.88-7.21t8.48-2.46h6.78V48.08a11.43,11.43,0,0,1,3.48-8.82Q409.27,36,415.21,36t9.33,3.22a11.59,11.59,0,0,1,3.39,8.82V61.31h11.87q11.53,0,11.53,9.67a8.74,8.74,0,0,1-2.88,7q-2.89,2.46-8.65,2.46H427.93v35.45q0,5.09,2.37,7.72a9.93,9.93,0,0,0,7,3L442,127Q447.1,127.3,449.47,129.5Z" transform="translate(-11.87 -20.44)"/><path class="cls-1" d="M467.28,141.46a15.4,15.4,0,0,1,0-20.86,15,15,0,0,1,20.69,0,15.4,15.4,0,0,1,0,20.86,15,15,0,0,1-20.69,0Z" transform="translate(-11.87 -20.44)"/></svg>