<svg width="571" height="273" viewBox="0 0 571 273" fill="none" xmlns="http://www.w3.org/2000/svg">
<ellipse rx="69.0696" ry="68.9852" transform="matrix(0.258478 0.966017 0.965834 -0.25916 165.059 89.7046)" stroke="#E4E9F2" stroke-width="3.53737"/>
<ellipse rx="42.5044" ry="42.4524" transform="matrix(0.258478 0.966017 0.965834 -0.25916 165.059 89.7045)" stroke="#E4E9F2" stroke-width="3.53737"/>
<ellipse rx="9.74059" ry="9.72868" transform="matrix(0.258478 0.966017 0.965834 -0.25916 105.184 54.1227)" fill="#79A617"/>
<ellipse rx="5.01788" ry="5.01174" transform="matrix(0.258478 0.966017 0.965834 -0.25916 101.879 53.176)" fill="#88B51F"/>
<ellipse rx="6.78889" ry="6.78059" transform="matrix(0.258478 0.966017 0.965834 -0.25916 171.864 47.8437)" fill="#DBA200"/>
<ellipse rx="3.49731" ry="3.49303" transform="matrix(0.258479 0.966017 0.965834 -0.25916 169.56 47.1834)" fill="#FFC300"/>
<ellipse rx="47.1255" ry="47.0679" transform="matrix(-0.989444 -0.144919 -0.14422 0.989546 464.335 139.012)" stroke="#E4E9F2" stroke-width="2.41351"/>
<ellipse rx="29.0003" ry="28.9648" transform="matrix(-0.989444 -0.144919 -0.14422 0.989546 464.335 139.012)" stroke="#E4E9F2" stroke-width="2.41351"/>
<ellipse rx="6.6459" ry="6.63778" transform="matrix(-0.989444 -0.144919 -0.14422 0.989546 502.797 111.103)" fill="#1A57D1"/>
<ellipse rx="3.42365" ry="3.41946" transform="matrix(-0.989444 -0.144919 -0.14422 0.989546 504.283 109.287)" fill="#599AF8"/>
<ellipse rx="4.63199" ry="4.62633" transform="matrix(-0.989444 -0.144919 -0.14422 0.989546 488.727 154.579)" fill="#DBA200"/>
<ellipse rx="2.38618" ry="2.38326" transform="matrix(-0.989443 -0.144919 -0.14422 0.989546 489.763 153.314)" fill="#FFC300"/>
<path d="M260.328 104.646H163.027C160.551 104.646 158.543 106.656 158.543 109.136V244.249C158.543 246.729 160.551 248.739 163.027 248.739H260.328C262.805 248.739 264.812 246.729 264.812 244.249V109.136C264.812 106.656 262.805 104.646 260.328 104.646Z" fill="#E4E9F2"/>
<path d="M254.123 221.554H169.233C166.757 221.554 164.75 223.564 164.75 226.044V232.598C164.75 235.078 166.757 237.088 169.233 237.088H254.123C256.599 237.088 258.606 235.078 258.606 232.598V226.044C258.606 223.564 256.599 221.554 254.123 221.554Z" fill="#C5CEE0"/>
<path d="M241.87 228.156H213.675C213.429 228.156 213.229 228.356 213.229 228.603V230.427C213.229 230.674 213.429 230.874 213.675 230.874H241.87C242.117 230.874 242.317 230.674 242.317 230.427V228.603C242.317 228.356 242.117 228.156 241.87 228.156Z" fill="#C5CEE0"/>
<path d="M169.792 229.381C169.792 229.046 169.918 228.723 170.143 228.475C170.368 228.227 170.678 228.071 171.011 228.039L180.73 227.128C180.917 227.11 181.105 227.132 181.283 227.192C181.46 227.251 181.624 227.347 181.762 227.473C181.901 227.6 182.012 227.753 182.088 227.925C182.164 228.096 182.203 228.282 182.204 228.469V230.56C182.203 230.747 182.164 230.933 182.088 231.104C182.012 231.276 181.901 231.43 181.762 231.556C181.624 231.682 181.46 231.778 181.283 231.838C181.105 231.897 180.917 231.919 180.73 231.901L171.011 230.99C170.678 230.959 170.368 230.804 170.142 230.556C169.916 230.307 169.791 229.984 169.792 229.648V229.381Z" fill="#C5CEE0"/>
<path d="M252.611 225.825H248.317C247.574 225.825 246.972 226.427 246.972 227.171V231.472C246.972 232.215 247.574 232.818 248.317 232.818H252.611C253.354 232.818 253.956 232.215 253.956 231.472V227.171C253.956 226.427 253.354 225.825 252.611 225.825Z" fill="#2E3A59"/>
<path d="M187.632 230.487C188.275 230.487 188.796 229.965 188.796 229.321C188.796 228.678 188.275 228.156 187.632 228.156C186.989 228.156 186.468 228.678 186.468 229.321C186.468 229.965 186.989 230.487 187.632 230.487Z" fill="#9AC047"/>
<path d="M193.452 230.487C194.095 230.487 194.616 229.965 194.616 229.321C194.616 228.678 194.095 228.156 193.452 228.156C192.809 228.156 192.288 228.678 192.288 229.321C192.288 229.965 192.809 230.487 193.452 230.487Z" fill="#9AC047"/>
<path d="M205.086 230.487C205.729 230.487 206.25 229.965 206.25 229.321C206.25 228.678 205.729 228.156 205.086 228.156C204.443 228.156 203.922 228.678 203.922 229.321C203.922 229.965 204.443 230.487 205.086 230.487Z" fill="white"/>
<path d="M199.267 230.487C199.909 230.487 200.431 229.965 200.431 229.321C200.431 228.678 199.909 228.156 199.267 228.156C198.624 228.156 198.103 228.678 198.103 229.321C198.103 229.965 198.624 230.487 199.267 230.487Z" fill="#F7F9FC"/>
<path d="M254.123 200.192H169.233C166.757 200.192 164.75 202.202 164.75 204.682V211.236C164.75 213.716 166.757 215.726 169.233 215.726H254.123C256.599 215.726 258.606 213.716 258.606 211.236V204.682C258.606 202.202 256.599 200.192 254.123 200.192Z" fill="#8F9BB3"/>
<path d="M241.87 206.794H213.675C213.429 206.794 213.229 206.994 213.229 207.241V209.065C213.229 209.312 213.429 209.512 213.675 209.512H241.87C242.117 209.512 242.317 209.312 242.317 209.065V207.241C242.317 206.994 242.117 206.794 241.87 206.794Z" fill="#C5CEE0"/>
<path d="M169.792 208.02C169.792 207.685 169.918 207.362 170.143 207.115C170.369 206.868 170.678 206.713 171.011 206.682L180.73 205.766C180.917 205.749 181.105 205.771 181.283 205.83C181.46 205.89 181.624 205.986 181.762 206.112C181.901 206.238 182.012 206.392 182.088 206.563C182.164 206.735 182.203 206.92 182.204 207.108V209.198C182.203 209.386 182.164 209.571 182.088 209.743C182.012 209.914 181.901 210.068 181.762 210.194C181.624 210.321 181.46 210.417 181.283 210.476C181.105 210.536 180.917 210.557 180.73 210.54L171.011 209.628C170.678 209.597 170.368 209.442 170.142 209.194C169.916 208.946 169.791 208.622 169.792 208.287V208.02Z" fill="#C5CEE0"/>
<path d="M252.611 204.463H248.317C247.574 204.463 246.972 205.066 246.972 205.809V210.11C246.972 210.854 247.574 211.456 248.317 211.456H252.611C253.354 211.456 253.956 210.854 253.956 210.11V205.809C253.956 205.066 253.354 204.463 252.611 204.463Z" fill="#2E3A59"/>
<path d="M187.632 209.125C188.275 209.125 188.796 208.603 188.796 207.959C188.796 207.316 188.275 206.794 187.632 206.794C186.989 206.794 186.468 207.316 186.468 207.959C186.468 208.603 186.989 209.125 187.632 209.125Z" fill="white"/>
<path d="M193.452 209.125C194.095 209.125 194.616 208.603 194.616 207.959C194.616 207.316 194.095 206.794 193.452 206.794C192.809 206.794 192.288 207.316 192.288 207.959C192.288 208.603 192.809 209.125 193.452 209.125Z" fill="#F1F6E5"/>
<path d="M205.086 209.125C205.729 209.125 206.25 208.603 206.25 207.959C206.25 207.316 205.729 206.794 205.086 206.794C204.443 206.794 203.922 207.316 203.922 207.959C203.922 208.603 204.443 209.125 205.086 209.125Z" fill="#2E3A59"/>
<path d="M199.267 209.125C199.909 209.125 200.431 208.603 200.431 207.959C200.431 207.316 199.909 206.794 199.267 206.794C198.624 206.794 198.103 207.316 198.103 207.959C198.103 208.603 198.624 209.125 199.267 209.125Z" fill="#2E3A59"/>
<path d="M254.123 178.83H169.233C166.757 178.83 164.75 180.84 164.75 183.32V189.874C164.75 192.354 166.757 194.364 169.233 194.364H254.123C256.599 194.364 258.606 192.354 258.606 189.874V183.32C258.606 180.84 256.599 178.83 254.123 178.83Z" fill="#8F9BB3"/>
<path d="M241.87 185.432H213.675C213.429 185.432 213.229 185.632 213.229 185.879V187.702C213.229 187.949 213.429 188.15 213.675 188.15H241.87C242.117 188.15 242.317 187.949 242.317 187.702V185.879C242.317 185.632 242.117 185.432 241.87 185.432Z" fill="#C5CEE0"/>
<path d="M169.792 186.662C169.791 186.326 169.916 186.002 170.142 185.754C170.368 185.506 170.678 185.351 171.011 185.32L180.73 184.408C180.917 184.39 181.105 184.411 181.282 184.47C181.46 184.529 181.624 184.625 181.762 184.751C181.901 184.877 182.012 185.03 182.088 185.202C182.164 185.373 182.203 185.558 182.204 185.746V187.836C182.203 188.023 182.164 188.209 182.088 188.38C182.012 188.552 181.901 188.706 181.762 188.832C181.624 188.958 181.46 189.054 181.283 189.114C181.105 189.173 180.917 189.195 180.73 189.178L171.011 188.266C170.678 188.235 170.368 188.08 170.142 187.832C169.916 187.583 169.791 187.26 169.792 186.924V186.662Z" fill="#C5CEE0"/>
<path d="M252.611 183.101H248.317C247.574 183.101 246.972 183.704 246.972 184.447V188.748C246.972 189.491 247.574 190.094 248.317 190.094H252.611C253.354 190.094 253.956 189.491 253.956 188.748V184.447C253.956 183.704 253.354 183.101 252.611 183.101Z" fill="#2E3A59"/>
<path d="M187.632 187.763C188.275 187.763 188.796 187.241 188.796 186.597C188.796 185.953 188.275 185.432 187.632 185.432C186.989 185.432 186.468 185.953 186.468 186.597C186.468 187.241 186.989 187.763 187.632 187.763Z" fill="#C5CEE0"/>
<path d="M193.452 187.763C194.095 187.763 194.616 187.241 194.616 186.597C194.616 185.953 194.095 185.432 193.452 185.432C192.809 185.432 192.288 185.953 192.288 186.597C192.288 187.241 192.809 187.763 193.452 187.763Z" fill="#F1F6E5"/>
<path d="M205.086 187.763C205.729 187.763 206.25 187.241 206.25 186.597C206.25 185.953 205.729 185.432 205.086 185.432C204.443 185.432 203.922 185.953 203.922 186.597C203.922 187.241 204.443 187.763 205.086 187.763Z" fill="#9AC047"/>
<path d="M199.267 187.763C199.909 187.763 200.431 187.241 200.431 186.597C200.431 185.953 199.909 185.432 199.267 185.432C198.624 185.432 198.103 185.953 198.103 186.597C198.103 187.241 198.624 187.763 199.267 187.763Z" fill="#C5CEE0"/>
<path d="M254.123 157.468H169.233C166.757 157.468 164.75 159.478 164.75 161.958V168.512C164.75 170.992 166.757 173.002 169.233 173.002H254.123C256.599 173.002 258.606 170.992 258.606 168.512V161.958C258.606 159.478 256.599 157.468 254.123 157.468Z" fill="#8F9BB3"/>
<path d="M241.87 164.07H213.675C213.429 164.07 213.229 164.27 213.229 164.517V166.341C213.229 166.588 213.429 166.788 213.675 166.788H241.87C242.117 166.788 242.317 166.588 242.317 166.341V164.517C242.317 164.27 242.117 164.07 241.87 164.07Z" fill="#C5CEE0"/>
<path d="M169.792 165.3C169.791 164.964 169.916 164.64 170.142 164.392C170.368 164.144 170.678 163.989 171.011 163.958L180.73 163.046C180.917 163.028 181.105 163.049 181.282 163.108C181.46 163.168 181.624 163.263 181.762 163.389C181.901 163.515 182.012 163.668 182.088 163.84C182.164 164.011 182.203 164.196 182.204 164.384V166.474C182.204 166.662 182.165 166.848 182.089 167.019C182.013 167.191 181.903 167.345 181.764 167.472C181.625 167.598 181.461 167.694 181.283 167.753C181.106 167.813 180.917 167.834 180.73 167.816L171.011 166.904C170.678 166.873 170.368 166.718 170.142 166.47C169.916 166.222 169.791 165.898 169.792 165.562V165.3Z" fill="#C5CEE0"/>
<path d="M252.611 161.739H248.317C247.574 161.739 246.972 162.341 246.972 163.085V167.385C246.972 168.129 247.574 168.732 248.317 168.732H252.611C253.354 168.732 253.956 168.129 253.956 167.385V163.085C253.956 162.341 253.354 161.739 252.611 161.739Z" fill="#2E3A59"/>
<path d="M187.632 166.401C188.275 166.401 188.796 165.879 188.796 165.236C188.796 164.592 188.275 164.07 187.632 164.07C186.989 164.07 186.468 164.592 186.468 165.236C186.468 165.879 186.989 166.401 187.632 166.401Z" fill="#F1F6E5"/>
<path d="M193.452 166.401C194.095 166.401 194.616 165.879 194.616 165.236C194.616 164.592 194.095 164.07 193.452 164.07C192.809 164.07 192.288 164.592 192.288 165.236C192.288 165.879 192.809 166.401 193.452 166.401Z" fill="white"/>
<path d="M205.086 166.401C205.729 166.401 206.25 165.879 206.25 165.236C206.25 164.592 205.729 164.07 205.086 164.07C204.443 164.07 203.922 164.592 203.922 165.236C203.922 165.879 204.443 166.401 205.086 166.401Z" fill="#2E3A59"/>
<path d="M199.267 166.401C199.909 166.401 200.431 165.879 200.431 165.236C200.431 164.592 199.909 164.07 199.267 164.07C198.624 164.07 198.103 164.592 198.103 165.236C198.103 165.879 198.624 166.401 199.267 166.401Z" fill="#F1F6E5"/>
<path d="M254.123 136.106H169.233C166.757 136.106 164.75 138.116 164.75 140.596V147.15C164.75 149.63 166.757 151.64 169.233 151.64H254.123C256.599 151.64 258.606 149.63 258.606 147.15V140.596C258.606 138.116 256.599 136.106 254.123 136.106Z" fill="#8F9BB3"/>
<path d="M241.87 142.708H213.675C213.429 142.708 213.229 142.908 213.229 143.155V144.978C213.229 145.225 213.429 145.426 213.675 145.426H241.87C242.117 145.426 242.317 145.225 242.317 144.978V143.155C242.317 142.908 242.117 142.708 241.87 142.708Z" fill="#C5CEE0"/>
<path d="M169.792 143.937C169.791 143.602 169.916 143.278 170.142 143.03C170.368 142.781 170.678 142.627 171.011 142.595L180.73 141.684C180.917 141.666 181.106 141.687 181.283 141.746C181.461 141.806 181.625 141.901 181.764 142.028C181.903 142.154 182.013 142.308 182.089 142.48C182.165 142.652 182.204 142.838 182.204 143.026V145.116C182.203 145.303 182.164 145.489 182.088 145.66C182.012 145.831 181.901 145.985 181.762 146.111C181.624 146.236 181.46 146.332 181.282 146.391C181.105 146.45 180.917 146.471 180.73 146.453L171.011 145.542C170.678 145.51 170.368 145.356 170.142 145.107C169.916 144.859 169.791 144.535 169.792 144.2V143.937Z" fill="#C5CEE0"/>
<path d="M252.611 140.38H248.317C247.574 140.38 246.972 140.983 246.972 141.727V146.027C246.972 146.771 247.574 147.373 248.317 147.373H252.611C253.354 147.373 253.956 146.771 253.956 146.027V141.727C253.956 140.983 253.354 140.38 252.611 140.38Z" fill="#2E3A59"/>
<path d="M187.632 145.039C188.275 145.039 188.796 144.517 188.796 143.873C188.796 143.229 188.275 142.708 187.632 142.708C186.989 142.708 186.468 143.229 186.468 143.873C186.468 144.517 186.989 145.039 187.632 145.039Z" fill="white"/>
<path d="M193.452 145.039C194.095 145.039 194.616 144.517 194.616 143.873C194.616 143.229 194.095 142.708 193.452 142.708C192.809 142.708 192.288 143.229 192.288 143.873C192.288 144.517 192.809 145.039 193.452 145.039Z" fill="#9AC047"/>
<path d="M205.086 145.039C205.729 145.039 206.25 144.517 206.25 143.873C206.25 143.229 205.729 142.708 205.086 142.708C204.443 142.708 203.922 143.229 203.922 143.873C203.922 144.517 204.443 145.039 205.086 145.039Z" fill="white"/>
<path d="M199.267 145.039C199.909 145.039 200.431 144.517 200.431 143.873C200.431 143.229 199.909 142.708 199.267 142.708C198.624 142.708 198.103 143.229 198.103 143.873C198.103 144.517 198.624 145.039 199.267 145.039Z" fill="#F1F6E5"/>
<path d="M254.123 114.744H169.233C166.757 114.744 164.75 116.754 164.75 119.234V125.788C164.75 128.268 166.757 130.278 169.233 130.278H254.123C256.599 130.278 258.606 128.268 258.606 125.788V119.234C258.606 116.754 256.599 114.744 254.123 114.744Z" fill="#C5CEE0"/>
<path d="M241.87 121.349H213.675C213.429 121.349 213.229 121.549 213.229 121.796V123.62C213.229 123.867 213.429 124.067 213.675 124.067H241.87C242.117 124.067 242.317 123.867 242.317 123.62V121.796C242.317 121.549 242.117 121.349 241.87 121.349Z" fill="#C5CEE0"/>
<path d="M169.792 122.575C169.791 122.24 169.916 121.916 170.142 121.668C170.368 121.419 170.678 121.265 171.011 121.233L180.73 120.322C180.917 120.304 181.105 120.326 181.283 120.386C181.46 120.445 181.624 120.541 181.762 120.667C181.901 120.794 182.012 120.947 182.088 121.119C182.164 121.29 182.203 121.476 182.204 121.664V123.754C182.203 123.941 182.164 124.127 182.088 124.298C182.012 124.469 181.901 124.623 181.762 124.749C181.624 124.874 181.46 124.97 181.282 125.029C181.105 125.088 180.917 125.109 180.73 125.091L171.011 124.18C170.678 124.148 170.368 123.994 170.142 123.745C169.916 123.497 169.791 123.173 169.792 122.838V122.575Z" fill="#C5CEE0"/>
<path d="M252.611 119.018H248.317C247.574 119.018 246.972 119.621 246.972 120.364V124.665C246.972 125.409 247.574 126.011 248.317 126.011H252.611C253.354 126.011 253.956 125.409 253.956 124.665V120.364C253.956 119.621 253.354 119.018 252.611 119.018Z" fill="#2E3A59"/>
<path d="M187.632 123.676C188.275 123.676 188.796 123.154 188.796 122.511C188.796 121.867 188.275 121.345 187.632 121.345C186.989 121.345 186.468 121.867 186.468 122.511C186.468 123.154 186.989 123.676 187.632 123.676Z" fill="#2E3A59"/>
<path d="M193.452 123.676C194.095 123.676 194.616 123.154 194.616 122.511C194.616 121.867 194.095 121.345 193.452 121.345C192.809 121.345 192.288 121.867 192.288 122.511C192.288 123.154 192.809 123.676 193.452 123.676Z" fill="white"/>
<path d="M205.086 123.676C205.729 123.676 206.25 123.154 206.25 122.511C206.25 121.867 205.729 121.345 205.086 121.345C204.443 121.345 203.922 121.867 203.922 122.511C203.922 123.154 204.443 123.676 205.086 123.676Z" fill="#C5CEE0"/>
<path d="M199.267 123.676C199.909 123.676 200.431 123.154 200.431 122.511C200.431 121.867 199.909 121.345 199.267 121.345C198.624 121.345 198.103 121.867 198.103 122.511C198.103 123.154 198.624 123.676 199.267 123.676Z" fill="#EDF1F7"/>
<path d="M102.493 104.645H5.19146C2.71518 104.645 0.707764 106.656 0.707764 109.135V244.249C0.707764 246.729 2.71518 248.739 5.19146 248.739H102.493C104.969 248.739 106.976 246.729 106.976 244.249V109.135C106.976 106.656 104.969 104.645 102.493 104.645Z" fill="#E4E9F2"/>
<path d="M96.2868 221.553H11.3973C8.92099 221.553 6.91357 223.564 6.91357 226.044V232.598C6.91357 235.078 8.92099 237.088 11.3973 237.088H96.2868C98.7631 237.088 100.771 235.078 100.771 232.598V226.044C100.771 223.564 98.7631 221.553 96.2868 221.553Z" fill="#C5CEE0"/>
<path d="M84.0336 228.155H55.8387C55.5921 228.155 55.3921 228.356 55.3921 228.603V230.426C55.3921 230.673 55.5921 230.873 55.8387 230.873H84.0336C84.2803 230.873 84.4803 230.673 84.4803 230.426V228.603C84.4803 228.356 84.2803 228.155 84.0336 228.155Z" fill="#8F9BB3"/>
<path d="M11.9553 229.381C11.9559 229.046 12.0811 228.722 12.3066 228.474C12.5321 228.226 12.8416 228.071 13.175 228.039L22.894 227.127C23.0805 227.11 23.2687 227.132 23.4463 227.191C23.624 227.251 23.7874 227.347 23.926 227.473C24.0646 227.599 24.1754 227.753 24.2513 227.925C24.3273 228.096 24.3667 228.282 24.3671 228.469V230.559C24.3667 230.747 24.3273 230.932 24.2513 231.104C24.1754 231.276 24.0646 231.429 23.926 231.556C23.7874 231.682 23.624 231.778 23.4463 231.837C23.2687 231.897 23.0805 231.919 22.894 231.901L13.175 230.989C12.8413 230.958 12.5311 230.804 12.3055 230.555C12.0798 230.307 11.955 229.983 11.9553 229.648V229.381Z" fill="#8F9BB3"/>
<path d="M94.7745 225.824H90.4797C89.7373 225.824 89.1355 226.427 89.1355 227.17V231.471C89.1355 232.215 89.7373 232.817 90.4797 232.817H94.7745C95.5169 232.817 96.1187 232.215 96.1187 231.471V227.17C96.1187 226.427 95.5169 225.824 94.7745 225.824Z" fill="#2E3A59"/>
<path d="M29.7955 230.486C30.4383 230.486 30.9593 229.964 30.9593 229.321C30.9593 228.677 30.4383 228.155 29.7955 228.155C29.1527 228.155 28.6316 228.677 28.6316 229.321C28.6316 229.964 29.1527 230.486 29.7955 230.486Z" fill="#8F9BB3"/>
<path d="M35.6153 230.486C36.2581 230.486 36.7792 229.964 36.7792 229.321C36.7792 228.677 36.2581 228.155 35.6153 228.155C34.9725 228.155 34.4514 228.677 34.4514 229.321C34.4514 229.964 34.9725 230.486 35.6153 230.486Z" fill="#8F9BB3"/>
<path d="M47.2493 230.486C47.8921 230.486 48.4132 229.964 48.4132 229.321C48.4132 228.677 47.8921 228.155 47.2493 228.155C46.6065 228.155 46.0854 228.677 46.0854 229.321C46.0854 229.964 46.6065 230.486 47.2493 230.486Z" fill="white"/>
<path d="M41.43 230.486C42.0728 230.486 42.5939 229.964 42.5939 229.321C42.5939 228.677 42.0728 228.155 41.43 228.155C40.7872 228.155 40.2661 228.677 40.2661 229.321C40.2661 229.964 40.7872 230.486 41.43 230.486Z" fill="#F1F6E5"/>
<path d="M96.2868 200.191H11.3973C8.92099 200.191 6.91357 202.202 6.91357 204.681V211.236C6.91357 213.716 8.92099 215.726 11.3973 215.726H96.2868C98.7631 215.726 100.771 213.716 100.771 211.236V204.681C100.771 202.202 98.7631 200.191 96.2868 200.191Z" fill="#C5CEE0"/>
<path d="M84.0334 206.793H55.8385C55.5918 206.793 55.3918 206.994 55.3918 207.241V209.064C55.3918 209.311 55.5918 209.512 55.8385 209.512H84.0334C84.2801 209.512 84.48 209.311 84.48 209.064V207.241C84.48 206.994 84.2801 206.793 84.0334 206.793Z" fill="#8F9BB3"/>
<path d="M11.9551 208.019C11.9558 207.684 12.0811 207.362 12.3067 207.114C12.5322 206.867 12.8418 206.713 13.1748 206.682L22.8937 205.766C23.0803 205.748 23.2684 205.77 23.4461 205.83C23.6238 205.889 23.7871 205.985 23.9257 206.111C24.0643 206.237 24.1751 206.391 24.2511 206.563C24.327 206.734 24.3665 206.92 24.3668 207.107V209.198C24.3665 209.385 24.327 209.571 24.2511 209.742C24.1751 209.914 24.0643 210.067 23.9257 210.194C23.7871 210.32 23.6238 210.416 23.4461 210.475C23.2684 210.535 23.0803 210.557 22.8937 210.539L13.1748 209.628C12.841 209.597 12.5309 209.442 12.3052 209.193C12.0796 208.945 11.9547 208.621 11.9551 208.286V208.019Z" fill="#8F9BB3"/>
<path d="M94.7745 204.462H90.4797C89.7373 204.462 89.1355 205.065 89.1355 205.809V210.109C89.1355 210.853 89.7373 211.455 90.4797 211.455H94.7745C95.5169 211.455 96.1187 210.853 96.1187 210.109V205.809C96.1187 205.065 95.5169 204.462 94.7745 204.462Z" fill="#2E3A59"/>
<path d="M29.7955 209.124C30.4383 209.124 30.9593 208.603 30.9593 207.959C30.9593 207.315 30.4383 206.793 29.7955 206.793C29.1527 206.793 28.6316 207.315 28.6316 207.959C28.6316 208.603 29.1527 209.124 29.7955 209.124Z" fill="white"/>
<path d="M35.615 209.124C36.2578 209.124 36.7789 208.603 36.7789 207.959C36.7789 207.315 36.2578 206.793 35.615 206.793C34.9723 206.793 34.4512 207.315 34.4512 207.959C34.4512 208.603 34.9723 209.124 35.615 209.124Z" fill="#F7F9FC"/>
<path d="M47.2491 209.124C47.8919 209.124 48.4129 208.603 48.4129 207.959C48.4129 207.315 47.8919 206.793 47.2491 206.793C46.6063 206.793 46.0852 207.315 46.0852 207.959C46.0852 208.603 46.6063 209.124 47.2491 209.124Z" fill="#2E3A59"/>
<path d="M41.43 209.124C42.0728 209.124 42.5939 208.603 42.5939 207.959C42.5939 207.315 42.0728 206.793 41.43 206.793C40.7872 206.793 40.2661 207.315 40.2661 207.959C40.2661 208.603 40.7872 209.124 41.43 209.124Z" fill="#2E3A59"/>
<path d="M96.2868 178.83H11.3973C8.92099 178.83 6.91357 180.84 6.91357 183.32V189.874C6.91357 192.354 8.92099 194.364 11.3973 194.364H96.2868C98.7631 194.364 100.771 192.354 100.771 189.874V183.32C100.771 180.84 98.7631 178.83 96.2868 178.83Z" fill="#C5CEE0"/>
<path d="M84.0331 185.432H55.8383C55.5916 185.432 55.3916 185.632 55.3916 185.879V187.702C55.3916 187.949 55.5916 188.15 55.8383 188.15H84.0331C84.2798 188.15 84.4798 187.949 84.4798 187.702V185.879C84.4798 185.632 84.2798 185.432 84.0331 185.432Z" fill="#8F9BB3"/>
<path d="M11.9551 186.661C11.9547 186.326 12.0796 186.002 12.3052 185.754C12.5309 185.506 12.841 185.351 13.1748 185.32L22.8937 184.408C23.0801 184.39 23.2681 184.411 23.4458 184.47C23.6235 184.529 23.7869 184.625 23.9255 184.751C24.0642 184.876 24.1751 185.03 24.2511 185.201C24.3271 185.373 24.3665 185.558 24.3668 185.745V187.836C24.3665 188.023 24.327 188.209 24.2511 188.38C24.1751 188.552 24.0643 188.705 23.9257 188.832C23.7871 188.958 23.6238 189.054 23.4461 189.113C23.2684 189.173 23.0803 189.195 22.8937 189.177L13.1748 188.266C12.841 188.235 12.5309 188.08 12.3052 187.831C12.0796 187.583 11.9547 187.259 11.9551 186.924V186.661Z" fill="#8F9BB3"/>
<path d="M94.7742 183.101H90.4795C89.7371 183.101 89.1353 183.703 89.1353 184.447V188.748C89.1353 189.491 89.7371 190.094 90.4795 190.094H94.7742C95.5166 190.094 96.1185 189.491 96.1185 188.748V184.447C96.1185 183.703 95.5166 183.101 94.7742 183.101Z" fill="#2E3A59"/>
<path d="M29.7952 187.762C30.438 187.762 30.9591 187.241 30.9591 186.597C30.9591 185.953 30.438 185.431 29.7952 185.431C29.1524 185.431 28.6313 185.953 28.6313 186.597C28.6313 187.241 29.1524 187.762 29.7952 187.762Z" fill="#E4E9F2"/>
<path d="M35.615 187.762C36.2578 187.762 36.7789 187.241 36.7789 186.597C36.7789 185.953 36.2578 185.431 35.615 185.431C34.9723 185.431 34.4512 185.953 34.4512 186.597C34.4512 187.241 34.9723 187.762 35.615 187.762Z" fill="#F7F9FC"/>
<path d="M47.2488 187.763C47.8916 187.763 48.4127 187.241 48.4127 186.597C48.4127 185.953 47.8916 185.432 47.2488 185.432C46.606 185.432 46.085 185.953 46.085 186.597C46.085 187.241 46.606 187.763 47.2488 187.763Z" fill="#8F9BB3"/>
<path d="M41.4297 187.762C42.0725 187.762 42.5936 187.241 42.5936 186.597C42.5936 185.953 42.0725 185.431 41.4297 185.431C40.787 185.431 40.2659 185.953 40.2659 186.597C40.2659 187.241 40.787 187.762 41.4297 187.762Z" fill="#E4E9F2"/>
<path d="M96.2868 157.468H11.3973C8.92099 157.468 6.91357 159.478 6.91357 161.958V168.512C6.91357 170.992 8.92099 173.002 11.3973 173.002H96.2868C98.7631 173.002 100.771 170.992 100.771 168.512V161.958C100.771 159.478 98.7631 157.468 96.2868 157.468Z" fill="#C5CEE0"/>
<path d="M84.0336 164.07H55.8387C55.5921 164.07 55.3921 164.27 55.3921 164.517V166.341C55.3921 166.588 55.5921 166.788 55.8387 166.788H84.0336C84.2803 166.788 84.4803 166.588 84.4803 166.341V164.517C84.4803 164.27 84.2803 164.07 84.0336 164.07Z" fill="#8F9BB3"/>
<path d="M11.9553 165.3C11.955 164.964 12.0798 164.64 12.3055 164.392C12.5311 164.144 12.8413 163.989 13.175 163.958L22.894 163.046C23.0789 163.028 23.2655 163.049 23.442 163.107C23.6185 163.165 23.7811 163.259 23.9195 163.383C24.0579 163.507 24.1691 163.658 24.2462 163.828C24.3232 163.997 24.3644 164.18 24.3671 164.366V166.457C24.3674 166.644 24.3284 166.83 24.2526 167.002C24.1769 167.174 24.0661 167.328 23.9274 167.454C23.7886 167.581 23.625 167.677 23.447 167.736C23.2691 167.795 23.0807 167.816 22.894 167.798L13.175 166.887C12.8413 166.856 12.5311 166.701 12.3055 166.452C12.0798 166.204 11.955 165.88 11.9553 165.545V165.3Z" fill="#8F9BB3"/>
<path d="M94.7745 161.738H90.4797C89.7373 161.738 89.1355 162.341 89.1355 163.084V167.385C89.1355 168.129 89.7373 168.731 90.4797 168.731H94.7745C95.5169 168.731 96.1187 168.129 96.1187 167.385V163.084C96.1187 162.341 95.5169 161.738 94.7745 161.738Z" fill="#2E3A59"/>
<path d="M29.7955 166.401C30.4383 166.401 30.9593 165.879 30.9593 165.235C30.9593 164.592 30.4383 164.07 29.7955 164.07C29.1527 164.07 28.6316 164.592 28.6316 165.235C28.6316 165.879 29.1527 166.401 29.7955 166.401Z" fill="#F7F9FC"/>
<path d="M35.6153 166.401C36.2581 166.401 36.7792 165.879 36.7792 165.235C36.7792 164.592 36.2581 164.07 35.6153 164.07C34.9725 164.07 34.4514 164.592 34.4514 165.235C34.4514 165.879 34.9725 166.401 35.6153 166.401Z" fill="white"/>
<path d="M47.2493 166.401C47.8921 166.401 48.4132 165.879 48.4132 165.235C48.4132 164.592 47.8921 164.07 47.2493 164.07C46.6065 164.07 46.0854 164.592 46.0854 165.235C46.0854 165.879 46.6065 166.401 47.2493 166.401Z" fill="#2E3A59"/>
<path d="M41.43 166.401C42.0728 166.401 42.5939 165.879 42.5939 165.235C42.5939 164.592 42.0728 164.07 41.43 164.07C40.7872 164.07 40.2661 164.592 40.2661 165.235C40.2661 165.879 40.7872 166.401 41.43 166.401Z" fill="#F7F9FC"/>
<path d="M96.2868 136.105H11.3973C8.92099 136.105 6.91357 138.116 6.91357 140.595V147.15C6.91357 149.63 8.92099 151.64 11.3973 151.64H96.2868C98.7631 151.64 100.771 149.63 100.771 147.15V140.595C100.771 138.116 98.7631 136.105 96.2868 136.105Z" fill="#C5CEE0"/>
<path d="M84.0336 142.707H55.8387C55.5921 142.707 55.3921 142.908 55.3921 143.155V144.978C55.3921 145.225 55.5921 145.425 55.8387 145.425H84.0336C84.2803 145.425 84.4803 145.225 84.4803 144.978V143.155C84.4803 142.908 84.2803 142.707 84.0336 142.707Z" fill="#8F9BB3"/>
<path d="M11.9553 143.937C11.955 143.601 12.0798 143.278 12.3055 143.029C12.5311 142.781 12.8413 142.626 13.175 142.595L22.894 141.683C23.0807 141.665 23.2691 141.687 23.447 141.746C23.625 141.805 23.7886 141.901 23.9274 142.028C24.0661 142.154 24.1769 142.308 24.2526 142.48C24.3284 142.652 24.3674 142.837 24.3671 143.025V145.115C24.3668 145.303 24.3273 145.488 24.2513 145.66C24.1753 145.831 24.0645 145.984 23.9258 146.11C23.7871 146.236 23.6237 146.332 23.446 146.391C23.2683 146.45 23.0803 146.471 22.894 146.453L13.175 145.541C12.8413 145.51 12.5311 145.355 12.3055 145.107C12.0798 144.859 11.955 144.535 11.9553 144.199V143.937Z" fill="#8F9BB3"/>
<path d="M94.7747 140.38H90.48C89.7376 140.38 89.1357 140.983 89.1357 141.726V146.027C89.1357 146.771 89.7376 147.373 90.48 147.373H94.7747C95.5171 147.373 96.119 146.771 96.119 146.027V141.726C96.119 140.983 95.5171 140.38 94.7747 140.38Z" fill="#2E3A59"/>
<path d="M29.7955 145.038C30.4383 145.038 30.9593 144.516 30.9593 143.873C30.9593 143.229 30.4383 142.707 29.7955 142.707C29.1527 142.707 28.6316 143.229 28.6316 143.873C28.6316 144.516 29.1527 145.038 29.7955 145.038Z" fill="white"/>
<path d="M35.6153 145.038C36.2581 145.038 36.7792 144.516 36.7792 143.873C36.7792 143.229 36.2581 142.707 35.6153 142.707C34.9725 142.707 34.4514 143.229 34.4514 143.873C34.4514 144.516 34.9725 145.038 35.6153 145.038Z" fill="#8F9BB3"/>
<path d="M47.2496 145.038C47.8924 145.038 48.4134 144.516 48.4134 143.873C48.4134 143.229 47.8924 142.707 47.2496 142.707C46.6068 142.707 46.0857 143.229 46.0857 143.873C46.0857 144.516 46.6068 145.038 47.2496 145.038Z" fill="white"/>
<path d="M41.43 145.038C42.0728 145.038 42.5939 144.516 42.5939 143.873C42.5939 143.229 42.0728 142.707 41.43 142.707C40.7872 142.707 40.2661 143.229 40.2661 143.873C40.2661 144.516 40.7872 145.038 41.43 145.038Z" fill="#F7F9FC"/>
<path d="M96.2868 114.743H11.3973C8.92099 114.743 6.91357 116.754 6.91357 119.233V125.788C6.91357 128.268 8.92099 130.278 11.3973 130.278H96.2868C98.7631 130.278 100.771 128.268 100.771 125.788V119.233C100.771 116.754 98.7631 114.743 96.2868 114.743Z" fill="#C5CEE0"/>
<path d="M84.0336 121.349H55.8387C55.5921 121.349 55.3921 121.549 55.3921 121.796V123.62C55.3921 123.867 55.5921 124.067 55.8387 124.067H84.0336C84.2803 124.067 84.4803 123.867 84.4803 123.62V121.796C84.4803 121.549 84.2803 121.349 84.0336 121.349Z" fill="#8F9BB3"/>
<path d="M11.9551 122.575C11.9547 122.239 12.0796 121.916 12.3052 121.667C12.5309 121.419 12.841 121.264 13.1748 121.233L22.8937 120.321C23.0803 120.304 23.2684 120.326 23.4461 120.385C23.6238 120.445 23.7871 120.541 23.9257 120.667C24.0643 120.793 24.1751 120.947 24.2511 121.119C24.327 121.29 24.3665 121.476 24.3668 121.663V123.753C24.3665 123.941 24.3271 124.126 24.2511 124.298C24.1751 124.469 24.0642 124.622 23.9255 124.748C23.7869 124.874 23.6235 124.97 23.4458 125.029C23.2681 125.088 23.0801 125.109 22.8937 125.091L13.1748 124.179C12.841 124.148 12.5309 123.993 12.3052 123.745C12.0796 123.497 11.9547 123.173 11.9551 122.837V122.575Z" fill="#8F9BB3"/>
<path d="M94.7747 119.018H90.48C89.7376 119.018 89.1357 119.621 89.1357 120.364V124.665C89.1357 125.408 89.7376 126.011 90.48 126.011H94.7747C95.5171 126.011 96.119 125.408 96.119 124.665V120.364C96.119 119.621 95.5171 119.018 94.7747 119.018Z" fill="#2E3A59"/>
<path d="M29.7955 123.676C30.4383 123.676 30.9593 123.154 30.9593 122.51C30.9593 121.867 30.4383 121.345 29.7955 121.345C29.1527 121.345 28.6316 121.867 28.6316 122.51C28.6316 123.154 29.1527 123.676 29.7955 123.676Z" fill="#2E3A59"/>
<path d="M35.615 123.676C36.2578 123.676 36.7789 123.154 36.7789 122.51C36.7789 121.867 36.2578 121.345 35.615 121.345C34.9723 121.345 34.4512 121.867 34.4512 122.51C34.4512 123.154 34.9723 123.676 35.615 123.676Z" fill="white"/>
<path d="M47.2493 123.676C47.8921 123.676 48.4132 123.154 48.4132 122.51C48.4132 121.867 47.8921 121.345 47.2493 121.345C46.6065 121.345 46.0854 121.867 46.0854 122.51C46.0854 123.154 46.6065 123.676 47.2493 123.676Z" fill="#E4E9F2"/>
<path d="M41.43 123.676C42.0728 123.676 42.5939 123.154 42.5939 122.51C42.5939 121.867 42.0728 121.345 41.43 121.345C40.7872 121.345 40.2661 121.867 40.2661 122.51C40.2661 123.154 40.7872 123.676 41.43 123.676Z" fill="#F7F9FC"/>
<path opacity="0.07" d="M74.4673 104.585H65.4999L72.2254 248.739H74.4673V104.585Z" fill="black"/>
<path d="M191.725 90.2334H77.8328C75.3565 90.2334 73.3491 92.2437 73.3491 94.7234V252.335C73.3491 254.815 75.3565 256.825 77.8328 256.825H191.725C194.201 256.825 196.208 254.815 196.208 252.335V94.7234C196.208 92.2437 194.201 90.2334 191.725 90.2334Z" fill="#E4E9F2"/>
<path d="M184.549 225.39H85.0054C82.5291 225.39 80.5217 227.4 80.5217 229.88V238.86C80.5217 241.34 82.5291 243.35 85.0054 243.35H184.549C187.025 243.35 189.032 241.34 189.032 238.86V229.88C189.032 227.4 187.025 225.39 184.549 225.39Z" fill="#C5CEE0"/>
<path d="M169.753 233.024H137.019C136.772 233.024 136.572 233.224 136.572 233.471V235.721C136.572 235.968 136.772 236.168 137.019 236.168H169.753C170 236.168 170.2 235.968 170.2 235.721V233.471C170.2 233.224 170 233.024 169.753 233.024Z" fill="#C5CEE0"/>
<path d="M86.3411 234.25C86.3418 233.915 86.4671 233.592 86.6927 233.345C86.9182 233.098 87.2277 232.943 87.5608 232.912L99.2252 231.816C99.4116 231.798 99.5995 231.82 99.777 231.88C99.9544 231.939 100.117 232.035 100.256 232.161C100.394 232.288 100.504 232.442 100.58 232.613C100.655 232.785 100.694 232.97 100.694 233.157V236.035C100.694 236.222 100.655 236.408 100.58 236.579C100.504 236.751 100.394 236.904 100.256 237.031C100.117 237.157 99.9544 237.253 99.777 237.313C99.5995 237.372 99.4116 237.394 99.2252 237.377L87.5651 236.284C87.2309 236.253 86.9203 236.098 86.6939 235.85C86.4676 235.602 86.3418 235.278 86.3411 234.942V234.25Z" fill="#8F9BB3"/>
<path d="M182.307 230.332H176.925C176.183 230.332 175.581 230.934 175.581 231.678V237.067C175.581 237.81 176.183 238.413 176.925 238.413H182.307C183.049 238.413 183.651 237.81 183.651 237.067V231.678C183.651 230.934 183.049 230.332 182.307 230.332Z" fill="#2E3A59"/>
<path d="M106.977 235.716C107.72 235.716 108.322 235.114 108.322 234.37C108.322 233.627 107.72 233.024 106.977 233.024C106.235 233.024 105.633 233.627 105.633 234.37C105.633 235.114 106.235 235.716 106.977 235.716Z" fill="#8F9BB3"/>
<path d="M113.703 235.716C114.445 235.716 115.047 235.114 115.047 234.37C115.047 233.627 114.445 233.024 113.703 233.024C112.96 233.024 112.359 233.627 112.359 234.37C112.359 235.114 112.96 235.716 113.703 235.716Z" fill="#F7F9FC"/>
<path d="M127.158 235.716C127.901 235.716 128.502 235.114 128.502 234.37C128.502 233.627 127.901 233.024 127.158 233.024C126.416 233.024 125.814 233.627 125.814 234.37C125.814 235.114 126.416 235.716 127.158 235.716Z" fill="#8F9BB3"/>
<path d="M120.428 235.716C121.171 235.716 121.773 235.114 121.773 234.37C121.773 233.627 121.171 233.024 120.428 233.024C119.686 233.024 119.084 233.627 119.084 234.37C119.084 235.114 119.686 235.716 120.428 235.716Z" fill="#F7F9FC"/>
<path d="M184.549 200.695H85.0054C82.5291 200.695 80.5217 202.705 80.5217 205.185V214.165C80.5217 216.645 82.5291 218.655 85.0054 218.655H184.549C187.025 218.655 189.032 216.645 189.032 214.165V205.185C189.032 202.705 187.025 200.695 184.549 200.695Z" fill="#C5CEE0"/>
<path d="M169.753 208.329H137.019C136.772 208.329 136.572 208.529 136.572 208.776V211.025C136.572 211.272 136.772 211.473 137.019 211.473H169.753C170 211.473 170.2 211.272 170.2 211.025V208.776C170.2 208.529 170 208.329 169.753 208.329Z" fill="#8F9BB3"/>
<path d="M86.3408 209.555C86.3405 209.219 86.4653 208.895 86.691 208.647C86.9166 208.399 87.2268 208.244 87.5605 208.213L99.225 207.12C99.4113 207.103 99.5993 207.125 99.7767 207.184C99.9542 207.244 100.117 207.34 100.256 207.466C100.394 207.592 100.504 207.746 100.58 207.918C100.655 208.089 100.694 208.275 100.694 208.462V211.339C100.694 211.527 100.655 211.712 100.58 211.884C100.504 212.055 100.394 212.209 100.256 212.335C100.117 212.462 99.9542 212.558 99.7767 212.617C99.5993 212.677 99.4113 212.699 99.225 212.681L87.5648 211.585C87.231 211.553 86.9209 211.399 86.6953 211.15C86.4696 210.902 86.3447 210.578 86.3451 210.243L86.3408 209.555Z" fill="#8F9BB3"/>
<path d="M182.307 205.632H176.925C176.183 205.632 175.581 206.235 175.581 206.978V212.367C175.581 213.111 176.183 213.714 176.925 213.714H182.307C183.049 213.714 183.651 213.111 183.651 212.367V206.978C183.651 206.235 183.049 205.632 182.307 205.632Z" fill="#2E3A59"/>
<path d="M106.977 211.021C107.719 211.021 108.321 210.418 108.321 209.675C108.321 208.932 107.719 208.329 106.977 208.329C106.235 208.329 105.633 208.932 105.633 209.675C105.633 210.418 106.235 211.021 106.977 211.021Z" fill="white"/>
<path d="M113.703 211.021C114.445 211.021 115.047 210.418 115.047 209.675C115.047 208.932 114.445 208.329 113.703 208.329C112.96 208.329 112.359 208.932 112.359 209.675C112.359 210.418 112.96 211.021 113.703 211.021Z" fill="#F7F9FC"/>
<path d="M127.158 211.021C127.9 211.021 128.502 210.418 128.502 209.675C128.502 208.932 127.9 208.329 127.158 208.329C126.416 208.329 125.814 208.932 125.814 209.675C125.814 210.418 126.416 211.021 127.158 211.021Z" fill="#2E3A59"/>
<path d="M120.428 211.021C121.171 211.021 121.772 210.418 121.772 209.675C121.772 208.932 121.171 208.329 120.428 208.329C119.686 208.329 119.084 208.932 119.084 209.675C119.084 210.418 119.686 211.021 120.428 211.021Z" fill="#2E3A59"/>
<path d="M184.549 176H85.0054C82.5291 176 80.5217 178.01 80.5217 180.49V189.47C80.5217 191.95 82.5291 193.96 85.0054 193.96H184.549C187.025 193.96 189.032 191.95 189.032 189.47V180.49C189.032 178.01 187.025 176 184.549 176Z" fill="#C5CEE0"/>
<path d="M169.753 183.629H137.019C136.772 183.629 136.572 183.83 136.572 184.077V186.326C136.572 186.573 136.772 186.773 137.019 186.773H169.753C170 186.773 170.2 186.573 170.2 186.326V184.077C170.2 183.83 170 183.629 169.753 183.629Z" fill="#8F9BB3"/>
<path d="M86.3408 184.86C86.3405 184.524 86.4653 184.2 86.691 183.952C86.9166 183.704 87.2268 183.549 87.5605 183.518L99.225 182.43C99.4113 182.412 99.5993 182.434 99.7767 182.494C99.9542 182.553 100.117 182.649 100.256 182.775C100.394 182.902 100.504 183.056 100.58 183.227C100.655 183.399 100.694 183.584 100.694 183.771V186.653C100.694 186.84 100.655 187.025 100.58 187.197C100.504 187.368 100.394 187.522 100.255 187.648C100.117 187.774 99.9538 187.869 99.7764 187.928C99.5989 187.987 99.4111 188.009 99.225 187.991L87.5648 186.898C87.231 186.867 86.9209 186.712 86.6953 186.464C86.4696 186.216 86.3447 185.892 86.3451 185.556L86.3408 184.86Z" fill="#8F9BB3"/>
<path d="M182.307 180.937H176.925C176.183 180.937 175.581 181.54 175.581 182.283V187.672C175.581 188.416 176.183 189.018 176.925 189.018H182.307C183.049 189.018 183.651 188.416 183.651 187.672V182.283C183.651 181.54 183.049 180.937 182.307 180.937Z" fill="#2E3A59"/>
<path d="M106.977 186.326C107.719 186.326 108.321 185.723 108.321 184.98C108.321 184.236 107.719 183.634 106.977 183.634C106.235 183.634 105.633 184.236 105.633 184.98C105.633 185.723 106.235 186.326 106.977 186.326Z" fill="#8F9BB3"/>
<path d="M113.703 186.326C114.445 186.326 115.047 185.723 115.047 184.98C115.047 184.236 114.445 183.634 113.703 183.634C112.96 183.634 112.359 184.236 112.359 184.98C112.359 185.723 112.96 186.326 113.703 186.326Z" fill="#F7F9FC"/>
<path d="M127.158 186.326C127.9 186.326 128.502 185.723 128.502 184.98C128.502 184.236 127.9 183.634 127.158 183.634C126.416 183.634 125.814 184.236 125.814 184.98C125.814 185.723 126.416 186.326 127.158 186.326Z" fill="white"/>
<path d="M120.428 186.326C121.171 186.326 121.772 185.723 121.772 184.98C121.772 184.236 121.171 183.634 120.428 183.634C119.686 183.634 119.084 184.236 119.084 184.98C119.084 185.723 119.686 186.326 120.428 186.326Z" fill="#8F9BB3"/>
<path d="M184.549 151.3H85.0054C82.5291 151.3 80.5217 153.311 80.5217 155.79V164.77C80.5217 167.25 82.5291 169.26 85.0054 169.26H184.549C187.025 169.26 189.032 167.25 189.032 164.77V155.79C189.032 153.311 187.025 151.3 184.549 151.3Z" fill="#C5CEE0"/>
<path d="M169.753 158.934H137.019C136.772 158.934 136.572 159.134 136.572 159.381V161.631C136.572 161.878 136.772 162.078 137.019 162.078H169.753C170 162.078 170.2 161.878 170.2 161.631V159.381C170.2 159.134 170 158.934 169.753 158.934Z" fill="#8F9BB3"/>
<path d="M86.3408 160.16C86.3415 159.825 86.4669 159.502 86.6924 159.255C86.918 159.008 87.2275 158.853 87.5605 158.822L99.225 157.726C99.4113 157.708 99.5993 157.73 99.7767 157.79C99.9542 157.849 100.117 157.945 100.256 158.072C100.394 158.198 100.504 158.352 100.58 158.523C100.655 158.695 100.694 158.88 100.694 159.068V161.945C100.694 162.132 100.655 162.318 100.58 162.489C100.504 162.661 100.394 162.815 100.256 162.941C100.117 163.067 99.9542 163.163 99.7767 163.223C99.5993 163.282 99.4113 163.304 99.225 163.287L87.5691 162.216C87.2357 162.184 86.9261 162.029 86.7007 161.781C86.4752 161.533 86.35 161.209 86.3494 160.874L86.3408 160.16Z" fill="#8F9BB3"/>
<path d="M182.307 156.242H176.925C176.183 156.242 175.581 156.845 175.581 157.588V162.977C175.581 163.72 176.183 164.323 176.925 164.323H182.307C183.049 164.323 183.651 163.72 183.651 162.977V157.588C183.651 156.845 183.049 156.242 182.307 156.242Z" fill="#2E3A59"/>
<path d="M106.977 161.626C107.719 161.626 108.321 161.024 108.321 160.28C108.321 159.537 107.719 158.934 106.977 158.934C106.235 158.934 105.633 159.537 105.633 160.28C105.633 161.024 106.235 161.626 106.977 161.626Z" fill="white"/>
<path d="M113.703 161.626C114.445 161.626 115.047 161.024 115.047 160.28C115.047 159.537 114.445 158.934 113.703 158.934C112.96 158.934 112.359 159.537 112.359 160.28C112.359 161.024 112.96 161.626 113.703 161.626Z" fill="#E4E9F2"/>
<path d="M127.158 161.626C127.9 161.626 128.502 161.024 128.502 160.28C128.502 159.537 127.9 158.934 127.158 158.934C126.416 158.934 125.814 159.537 125.814 160.28C125.814 161.024 126.416 161.626 127.158 161.626Z" fill="#F7F9FC"/>
<path d="M120.428 161.626C121.171 161.626 121.772 161.024 121.772 160.28C121.772 159.537 121.171 158.934 120.428 158.934C119.686 158.934 119.084 159.537 119.084 160.28C119.084 161.024 119.686 161.626 120.428 161.626Z" fill="#E4E9F2"/>
<path d="M184.549 126.605H85.0054C82.5291 126.605 80.5217 128.615 80.5217 131.095V140.075C80.5217 142.555 82.5291 144.565 85.0054 144.565H184.549C187.025 144.565 189.032 142.555 189.032 140.075V131.095C189.032 128.615 187.025 126.605 184.549 126.605Z" fill="#C5CEE0"/>
<path d="M169.753 134.239H137.018C136.772 134.239 136.572 134.439 136.572 134.686V136.936C136.572 137.183 136.772 137.383 137.018 137.383H169.753C170 137.383 170.199 137.183 170.199 136.936V134.686C170.199 134.439 170 134.239 169.753 134.239Z" fill="#8F9BB3"/>
<path d="M86.3408 135.465C86.3404 135.129 86.4653 134.805 86.6909 134.557C86.9166 134.309 87.2267 134.154 87.5605 134.123L99.2249 133.03C99.4113 133.013 99.5992 133.035 99.7767 133.094C99.9541 133.154 100.117 133.25 100.255 133.376C100.394 133.503 100.504 133.656 100.58 133.828C100.655 133.999 100.694 134.185 100.694 134.372V137.271C100.694 137.458 100.655 137.644 100.58 137.815C100.504 137.987 100.394 138.141 100.255 138.267C100.117 138.393 99.9541 138.489 99.7767 138.549C99.5992 138.608 99.4113 138.63 99.2249 138.613L87.5648 137.516C87.2265 137.486 86.9122 137.328 86.6852 137.075C86.4581 136.822 86.3351 136.493 86.3408 136.153V135.465Z" fill="#8F9BB3"/>
<path d="M182.307 131.542H176.925C176.183 131.542 175.581 132.145 175.581 132.889V138.278C175.581 139.021 176.183 139.624 176.925 139.624H182.307C183.049 139.624 183.651 139.021 183.651 138.278V132.889C183.651 132.145 183.049 131.542 182.307 131.542Z" fill="#2E3A59"/>
<path d="M106.977 136.931C107.719 136.931 108.321 136.329 108.321 135.585C108.321 134.842 107.719 134.239 106.977 134.239C106.235 134.239 105.633 134.842 105.633 135.585C105.633 136.329 106.235 136.931 106.977 136.931Z" fill="#8F9BB3"/>
<path d="M113.703 136.931C114.445 136.931 115.047 136.329 115.047 135.585C115.047 134.842 114.445 134.239 113.703 134.239C112.96 134.239 112.358 134.842 112.358 135.585C112.358 136.329 112.96 136.931 113.703 136.931Z" fill="#F7F9FC"/>
<path d="M127.158 136.931C127.9 136.931 128.502 136.329 128.502 135.585C128.502 134.842 127.9 134.239 127.158 134.239C126.415 134.239 125.813 134.842 125.813 135.585C125.813 136.329 126.415 136.931 127.158 136.931Z" fill="white"/>
<path d="M120.428 136.931C121.171 136.931 121.772 136.329 121.772 135.585C121.772 134.842 121.171 134.239 120.428 134.239C119.686 134.239 119.084 134.842 119.084 135.585C119.084 136.329 119.686 136.931 120.428 136.931Z" fill="#F7F9FC"/>
<path d="M184.549 101.91H85.0054C82.5291 101.91 80.5217 103.92 80.5217 106.4V115.38C80.5217 117.86 82.5291 119.87 85.0054 119.87H184.549C187.025 119.87 189.032 117.86 189.032 115.38V106.4C189.032 103.92 187.025 101.91 184.549 101.91Z" fill="#C5CEE0"/>
<path d="M169.753 109.54H137.019C136.772 109.54 136.572 109.74 136.572 109.987V112.236C136.572 112.483 136.772 112.683 137.019 112.683H169.753C170 112.683 170.2 112.483 170.2 112.236V109.987C170.2 109.74 170 109.54 169.753 109.54Z" fill="#8F9BB3"/>
<path d="M86.3408 110.769C86.3405 110.433 86.4653 110.11 86.691 109.861C86.9166 109.613 87.2268 109.458 87.5605 109.427L99.225 108.33C99.4113 108.313 99.5993 108.335 99.7767 108.394C99.9542 108.454 100.117 108.55 100.256 108.676C100.394 108.803 100.504 108.957 100.58 109.128C100.655 109.3 100.694 109.485 100.694 109.672V112.554C100.694 112.741 100.655 112.926 100.58 113.098C100.504 113.269 100.394 113.423 100.255 113.549C100.117 113.675 99.9538 113.77 99.7764 113.829C99.5989 113.888 99.4111 113.909 99.225 113.891L87.5648 112.799C87.2317 112.769 86.9218 112.616 86.6955 112.369C86.4691 112.123 86.3427 111.801 86.3408 111.466V110.769Z" fill="#8F9BB3"/>
<path d="M182.307 106.847H176.925C176.183 106.847 175.581 107.45 175.581 108.193V113.582C175.581 114.326 176.183 114.928 176.925 114.928H182.307C183.049 114.928 183.651 114.326 183.651 113.582V108.193C183.651 107.45 183.049 106.847 182.307 106.847Z" fill="#2E3A59"/>
<path d="M106.977 112.236C107.719 112.236 108.321 111.633 108.321 110.89C108.321 110.146 107.719 109.544 106.977 109.544C106.235 109.544 105.633 110.146 105.633 110.89C105.633 111.633 106.235 112.236 106.977 112.236Z" fill="#F7F9FC"/>
<path d="M113.703 112.236C114.445 112.236 115.047 111.633 115.047 110.89C115.047 110.146 114.445 109.544 113.703 109.544C112.96 109.544 112.359 110.146 112.359 110.89C112.359 111.633 112.96 112.236 113.703 112.236Z" fill="white"/>
<path d="M127.158 112.236C127.9 112.236 128.502 111.633 128.502 110.89C128.502 110.146 127.9 109.544 127.158 109.544C126.416 109.544 125.814 110.146 125.814 110.89C125.814 111.633 126.416 112.236 127.158 112.236Z" fill="#2E3A59"/>
<path d="M120.428 112.236C121.171 112.236 121.772 111.633 121.772 110.89C121.772 110.146 121.171 109.544 120.428 109.544C119.686 109.544 119.084 110.146 119.084 110.89C119.084 111.633 119.686 112.236 120.428 112.236Z" fill="#E4E9F2"/>
<path d="M329.588 220.189H286.977V265.393H329.588V220.189Z" fill="#E4E9F2"/>
<mask id="mask0_2787_83672" style="mask-type:alpha" maskUnits="userSpaceOnUse" x="286" y="220" width="44" height="46">
<path d="M329.588 220.189H286.977V265.393H329.588V220.189Z" fill="#C5CEE0"/>
</mask>
<g mask="url(#mask0_2787_83672)">
<path opacity="0.07" d="M335.188 227.282H281.043V234.71H335.188V227.282Z" fill="black"/>
</g>
<path fill-rule="evenodd" clip-rule="evenodd" d="M185.497 59.4573H431.432C432.84 59.4632 434.189 60.0261 435.186 61.0236C436.182 62.0211 436.744 63.3722 436.75 64.7829V221.749C436.746 223.16 436.184 224.513 435.188 225.51C434.191 226.508 432.841 227.071 431.432 227.075H185.497C184.086 227.073 182.734 226.511 181.736 225.513C180.738 224.515 180.175 223.162 180.171 221.749V64.7457C180.177 63.3338 180.74 61.9815 181.738 60.9839C182.736 59.9862 184.087 59.4241 185.497 59.4202" fill="#8F9BB3"/>
<path fill-rule="evenodd" clip-rule="evenodd" d="M190.17 67.6275H426.032C426.519 67.6295 426.986 67.8242 427.33 68.1692C427.675 68.5142 427.869 68.9816 427.871 69.4695V196.124C427.869 196.612 427.675 197.079 427.33 197.424C426.986 197.769 426.519 197.964 426.032 197.966H190.17C189.682 197.964 189.216 197.769 188.871 197.424C188.526 197.079 188.332 196.612 188.33 196.124V69.4473C188.332 68.9593 188.526 68.4919 188.871 68.1469C189.216 67.8019 189.682 67.6072 190.17 67.6052" fill="white"/>
<path fill-rule="evenodd" clip-rule="evenodd" d="M281.785 272.271H335.752C336.139 272.261 336.506 272.101 336.777 271.823C337.047 271.545 337.198 271.173 337.198 270.785V262.333C337.198 261.945 337.047 261.573 336.777 261.295C336.506 261.018 336.139 260.857 335.752 260.847H281.785C281.392 260.847 281.014 261.004 280.736 261.283C280.458 261.561 280.302 261.939 280.302 262.333V270.815C280.302 271.209 280.458 271.587 280.736 271.866C281.014 272.144 281.392 272.301 281.785 272.301" fill="#8F9BB3"/>
<mask id="mask1_2787_83672" style="mask-type:alpha" maskUnits="userSpaceOnUse" x="180" y="59" width="257" height="169">
<path fill-rule="evenodd" clip-rule="evenodd" d="M185.497 59.4573H431.432C432.84 59.4632 434.189 60.0261 435.186 61.0236C436.182 62.0211 436.744 63.3722 436.75 64.7829V221.749C436.746 223.16 436.184 224.513 435.188 225.51C434.191 226.508 432.841 227.071 431.432 227.075H185.497C184.086 227.073 182.734 226.511 181.736 225.513C180.738 224.515 180.175 223.162 180.171 221.749V64.7457C180.177 63.3338 180.74 61.9815 181.738 60.9839C182.736 59.9862 184.087 59.4241 185.497 59.4202" fill="#8F9BB3"/>
</mask>
<g mask="url(#mask1_2787_83672)">
<path opacity="0.07" d="M456.735 211.714H376.531C374.477 211.714 372.812 213.383 372.812 215.441V268.796C372.812 270.854 374.477 272.523 376.531 272.523H456.735C458.789 272.523 460.453 270.854 460.453 268.796V215.441C460.453 213.383 458.789 211.714 456.735 211.714Z" fill="black"/>
<path fill-rule="evenodd" clip-rule="evenodd" d="M218 139.219H227.891C229.647 139.219 230.626 139.251 231.903 142.948L232.02 143.311H249.504C250.801 143.314 252.045 143.829 252.965 144.745C253.884 145.661 254.406 146.903 254.416 148.202V173.182C254.411 174.484 253.892 175.732 252.972 176.653C252.052 177.573 250.805 178.092 249.504 178.094H223.299C222.036 178.09 220.823 177.6 219.911 176.725C218.999 175.851 218.457 174.658 218.399 173.395C216.526 172.889 215.169 171.514 215.169 169.899V142.927C215.169 140.886 216.441 139.197 218 139.197" fill="#DBA200"/>
<path fill-rule="evenodd" clip-rule="evenodd" d="M221.958 146.012L246.359 150.392C247.278 150.565 248.096 151.086 248.642 151.845C249.189 152.605 249.423 153.546 249.297 154.474L246.748 172.089C246.685 172.539 246.532 172.972 246.298 173.361C246.064 173.75 245.753 174.087 245.385 174.353C245.017 174.619 244.6 174.808 244.157 174.907C243.715 175.007 243.257 175.017 242.81 174.935L218.388 170.581C217.47 170.406 216.654 169.885 216.108 169.126C215.562 168.367 215.327 167.427 215.451 166.5L217.999 148.884C218.062 148.434 218.215 148 218.45 147.611C218.684 147.221 218.995 146.883 219.363 146.617C219.732 146.35 220.15 146.161 220.593 146.061C221.036 145.961 221.495 145.952 221.942 146.034" fill="white"/>
<path fill-rule="evenodd" clip-rule="evenodd" d="M214.03 151.852H249.249C249.837 151.855 250.401 152.091 250.816 152.508C251.232 152.925 251.466 153.49 251.468 154.079V175.867C251.466 176.456 251.232 177.021 250.816 177.439C250.401 177.856 249.837 178.092 249.249 178.094H214.03C213.441 178.093 212.876 177.858 212.459 177.441C212.042 177.023 211.807 176.457 211.806 175.867V154.063C211.807 153.473 212.042 152.907 212.459 152.49C212.876 152.073 213.441 151.838 214.03 151.836" fill="#F7A10D"/>
<path fill-rule="evenodd" clip-rule="evenodd" d="M214.03 151.852H249.249C249.837 151.855 250.401 152.091 250.816 152.508C251.232 152.925 251.466 153.49 251.468 154.079V175.867C251.466 176.456 251.232 177.021 250.816 177.439C250.401 177.856 249.837 178.092 249.249 178.094H214.03C213.441 178.093 212.876 177.858 212.459 177.441C212.042 177.023 211.807 176.457 211.806 175.867V154.063C211.807 153.473 212.042 152.907 212.459 152.49C212.876 152.073 213.441 151.838 214.03 151.836" fill="#FFC300"/>
<path fill-rule="evenodd" clip-rule="evenodd" d="M218 84.7032H227.891C229.647 84.7032 230.626 84.7352 231.903 88.4331L232.02 88.7954H249.504C250.801 88.7982 252.045 89.3136 252.965 90.2295C253.884 91.1455 254.406 92.388 254.416 93.6868V118.666C254.411 119.969 253.892 121.217 252.972 122.137C252.052 123.058 250.805 123.576 249.504 123.579H223.299C222.036 123.575 220.823 123.085 219.911 122.21C218.999 121.335 218.457 120.143 218.399 118.879C216.526 118.373 215.169 116.998 215.169 115.384V88.4117C215.169 86.371 216.441 84.6819 218 84.6819" fill="#DBA200"/>
<path fill-rule="evenodd" clip-rule="evenodd" d="M221.958 91.4966L246.359 95.8765C247.278 96.0497 248.096 96.5699 248.642 97.3296C249.189 98.0893 249.423 99.0303 249.297 99.958L246.748 117.574C246.685 118.024 246.532 118.456 246.298 118.845C246.064 119.234 245.753 119.572 245.385 119.838C245.017 120.103 244.6 120.292 244.157 120.392C243.715 120.492 243.257 120.501 242.81 120.419L218.388 116.066C217.47 115.89 216.654 115.369 216.108 114.61C215.562 113.851 215.327 112.912 215.451 111.984L217.999 94.3686C218.062 93.918 218.215 93.4848 218.45 93.0951C218.684 92.7054 218.995 92.3672 219.363 92.1009C219.732 91.8346 220.15 91.6457 220.593 91.5455C221.036 91.4453 221.495 91.4359 221.942 91.5179" fill="white"/>
<path fill-rule="evenodd" clip-rule="evenodd" d="M214.03 97.3368H249.249C249.837 97.3396 250.401 97.5753 250.816 97.9926C251.232 98.4098 251.466 98.9747 251.468 99.564V121.352C251.466 121.941 251.232 122.506 250.816 122.923C250.401 123.34 249.837 123.576 249.249 123.579H214.03C213.441 123.578 212.876 123.343 212.459 122.925C212.042 122.508 211.807 121.942 211.806 121.352V99.5481C211.807 98.9578 212.042 98.3921 212.459 97.9747C212.876 97.5573 213.441 97.3222 214.03 97.3208" fill="#F7A10D"/>
<path fill-rule="evenodd" clip-rule="evenodd" d="M214.03 97.3368H249.249C249.837 97.3396 250.401 97.5753 250.816 97.9926C251.232 98.4098 251.466 98.9747 251.468 99.564V121.352C251.466 121.941 251.232 122.506 250.816 122.923C250.401 123.34 249.837 123.576 249.249 123.579H214.03C213.441 123.578 212.876 123.343 212.459 122.925C212.042 122.508 211.807 121.942 211.806 121.352V99.5481C211.807 98.9578 212.042 98.3921 212.459 97.9747C212.876 97.5573 213.441 97.3222 214.03 97.3208" fill="#FFC300"/>
<path fill-rule="evenodd" clip-rule="evenodd" d="M278.643 139.219H288.534C290.29 139.219 291.269 139.251 292.546 142.948L292.663 143.311H310.147C311.445 143.314 312.688 143.829 313.608 144.745C314.527 145.661 315.049 146.903 315.059 148.202V173.182C315.054 174.484 314.535 175.732 313.615 176.653C312.695 177.573 311.448 178.092 310.147 178.094H283.942C282.679 178.09 281.466 177.6 280.554 176.725C279.642 175.851 279.1 174.658 279.042 173.395C277.169 172.889 275.812 171.514 275.812 169.899V142.927C275.812 140.886 277.084 139.197 278.643 139.197" fill="#DBA200"/>
<path fill-rule="evenodd" clip-rule="evenodd" d="M282.601 146.012L307.003 150.392C307.922 150.565 308.739 151.086 309.286 151.845C309.832 152.605 310.067 153.546 309.94 154.474L307.391 172.089C307.328 172.539 307.175 172.972 306.941 173.361C306.707 173.75 306.396 174.087 306.029 174.353C305.661 174.619 305.243 174.808 304.801 174.907C304.358 175.007 303.9 175.017 303.454 174.935L279.031 170.581C278.113 170.406 277.298 169.885 276.751 169.126C276.205 168.367 275.97 167.427 276.094 166.5L278.643 148.884C278.705 148.434 278.859 148 279.093 147.611C279.328 147.221 279.638 146.883 280.007 146.617C280.375 146.35 280.793 146.161 281.236 146.061C281.68 145.961 282.138 145.952 282.585 146.034" fill="white"/>
<path fill-rule="evenodd" clip-rule="evenodd" d="M274.673 151.852H309.892C310.481 151.855 311.044 152.091 311.46 152.508C311.875 152.925 312.109 153.49 312.111 154.079V175.867C312.109 176.456 311.875 177.021 311.46 177.439C311.044 177.856 310.481 178.092 309.892 178.094H274.673C274.084 178.093 273.519 177.858 273.102 177.441C272.685 177.023 272.451 176.457 272.449 175.867V154.063C272.451 153.473 272.685 152.907 273.102 152.49C273.519 152.073 274.084 151.838 274.673 151.836" fill="#F7A10D"/>
<path fill-rule="evenodd" clip-rule="evenodd" d="M274.673 151.852H309.892C310.481 151.855 311.044 152.091 311.46 152.508C311.875 152.925 312.109 153.49 312.111 154.079V175.867C312.109 176.456 311.875 177.021 311.46 177.439C311.044 177.856 310.481 178.092 309.892 178.094H274.673C274.084 178.093 273.519 177.858 273.102 177.441C272.685 177.023 272.451 176.457 272.449 175.867V154.063C272.451 153.473 272.685 152.907 273.102 152.49C273.519 152.073 274.084 151.838 274.673 151.836" fill="#FFC300"/>
<path fill-rule="evenodd" clip-rule="evenodd" d="M278.643 84.7032H288.534C290.29 84.7032 291.269 84.7352 292.546 88.4331L292.663 88.7954H310.148C311.445 88.7982 312.688 89.3136 313.608 90.2295C314.528 91.1455 315.049 92.388 315.059 93.6868V118.666C315.055 119.969 314.536 121.217 313.615 122.137C312.695 123.058 311.448 123.576 310.148 123.579H283.943C282.68 123.575 281.466 123.085 280.554 122.21C279.642 121.335 279.101 120.143 279.042 118.879C277.169 118.373 275.812 116.998 275.812 115.384V88.4117C275.812 86.371 277.084 84.6819 278.643 84.6819" fill="#DBA200"/>
<path fill-rule="evenodd" clip-rule="evenodd" d="M282.601 91.4966L307.003 95.8765C307.922 96.0497 308.739 96.5699 309.286 97.3296C309.832 98.0893 310.067 99.0303 309.94 99.958L307.391 117.574C307.328 118.024 307.175 118.456 306.941 118.845C306.707 119.234 306.396 119.572 306.029 119.838C305.661 120.103 305.243 120.292 304.801 120.392C304.358 120.492 303.9 120.501 303.454 120.419L279.031 116.066C278.113 115.89 277.298 115.369 276.751 114.61C276.205 113.851 275.97 112.912 276.094 111.984L278.643 94.3686C278.705 93.918 278.859 93.4848 279.093 93.0951C279.328 92.7054 279.638 92.3672 280.007 92.1009C280.375 91.8346 280.793 91.6457 281.236 91.5455C281.68 91.4453 282.138 91.4359 282.585 91.5179" fill="white"/>
<path fill-rule="evenodd" clip-rule="evenodd" d="M274.673 97.3368H309.892C310.481 97.3396 311.044 97.5753 311.46 97.9926C311.875 98.4098 312.109 98.9747 312.111 99.564V121.352C312.109 121.941 311.875 122.506 311.46 122.923C311.044 123.34 310.481 123.576 309.892 123.579H274.673C274.084 123.578 273.519 123.343 273.102 122.925C272.685 122.508 272.451 121.942 272.449 121.352V99.5481C272.451 98.9578 272.685 98.3921 273.102 97.9747C273.519 97.5573 274.084 97.3222 274.673 97.3208" fill="#F7A10D"/>
<path fill-rule="evenodd" clip-rule="evenodd" d="M274.673 97.3368H309.892C310.481 97.3396 311.044 97.5753 311.46 97.9926C311.875 98.4098 312.109 98.9747 312.111 99.564V121.352C312.109 121.941 311.875 122.506 311.46 122.923C311.044 123.34 310.481 123.576 309.892 123.579H274.673C274.084 123.578 273.519 123.343 273.102 122.925C272.685 122.508 272.451 121.942 272.449 121.352V99.5481C272.451 98.9578 272.685 98.3921 273.102 97.9747C273.519 97.5573 274.084 97.3222 274.673 97.3208" fill="#FFC300"/>
<path opacity="0.07" fill-rule="evenodd" clip-rule="evenodd" d="M329.322 49.4218V117.333C329.322 130.05 335.419 150.909 348.624 163.133C359.192 172.878 380.459 183.31 389.771 187.296C399.084 183.31 420.336 172.883 430.919 163.119C444.129 150.909 450.22 130.05 450.22 117.318V49.4218C450.22 49.4218 435.079 52.433 424.058 50.9469C410.922 49.1782 396.121 42.7223 389.771 39.2532C383.422 42.7272 368.601 49.1831 355.484 50.9469C344.464 52.433 329.322 49.4218 329.322 49.4218Z" fill="black"/>
</g>
<path d="M431.476 43.6319C418.339 41.8633 403.538 35.4074 397.189 31.9382C390.839 35.4122 376.019 41.8681 362.901 43.6319C351.881 45.0937 336.74 42.1069 336.74 42.1069V110.018C336.74 122.735 342.836 143.594 356.041 155.819C366.609 165.563 387.876 175.995 397.189 179.981C406.501 175.995 427.768 165.583 438.336 155.819C451.546 143.608 457.638 122.75 457.638 110.018V42.1069C457.638 42.1069 442.496 45.1424 431.476 43.6319Z" fill="#9AC047"/>
<path d="M426.868 52.0127C415.512 50.4828 402.687 44.8942 397.189 41.8831C391.691 44.8942 378.865 50.4828 367.509 52.0127C357.973 53.2991 344.865 50.6923 344.865 50.6923V109.458C344.865 120.465 350.144 138.517 361.573 149.085C370.72 157.539 389.126 166.553 397.189 170.002C405.251 166.553 423.657 157.539 432.804 149.085C444.233 138.517 449.512 120.465 449.512 109.458V50.6923C449.512 50.6923 436.405 53.2991 426.868 52.0127Z" fill="#79A617"/>
<path d="M423.988 57.2502C413.731 55.8664 402.151 50.8187 397.189 48.1047C392.226 50.8187 380.646 55.8664 370.389 57.2502C361.782 58.4098 349.954 56.0565 349.954 56.0565V109.131C349.954 119.071 354.718 135.369 365.037 144.909C373.309 152.544 389.915 160.681 397.194 163.795C404.492 160.681 421.093 152.544 429.35 144.909C439.674 135.369 444.433 119.086 444.433 109.131V56.0565C444.433 56.0565 432.619 58.4098 423.988 57.2502Z" fill="#88B51F"/>
<path opacity="0.07" fill-rule="evenodd" clip-rule="evenodd" d="M376.242 94.1199V100.732H369.888C369.047 100.732 368.365 101.414 368.365 102.257V131.257C368.365 132.099 369.047 132.782 369.888 132.782H414.592C415.433 132.782 416.115 132.099 416.115 131.257V102.257C416.115 101.414 415.433 100.732 414.592 100.732H407.995V94.1199C407.995 91.8298 407.995 75.2979 392.245 75.2979C376.495 75.2979 376.242 91.0698 376.242 94.1199ZM382.081 94.1199V100.732H402.399V94.1199C402.399 90.8651 400.37 80.8962 392.24 80.8962C385.127 80.9011 382.081 87.7224 382.081 94.1199Z" fill="black"/>
<path d="M386.947 89.2473V96.1174H381.108V89.2473C381.108 86.1972 381.361 70.4253 397.111 70.4253C412.86 70.4253 412.86 86.9573 412.86 89.2473V96.1174H407.265V89.2473C407.265 85.9926 405.236 76.0237 397.106 76.0237C389.993 76.0285 386.947 82.8499 386.947 89.2473Z" fill="#F1F6E5"/>
<path d="M419.458 95.8591H374.754C373.913 95.8591 373.231 96.5419 373.231 97.3842V126.385C373.231 127.227 373.913 127.91 374.754 127.91H419.458C420.299 127.91 420.981 127.227 420.981 126.385V97.3842C420.981 96.5419 420.299 95.8591 419.458 95.8591Z" fill="#DCE8BE"/>
<path fill-rule="evenodd" clip-rule="evenodd" d="M397.106 117.483H393.9C393.809 117.49 393.718 117.471 393.637 117.429C393.556 117.387 393.489 117.322 393.443 117.244C393.397 117.165 393.373 117.075 393.376 116.984C393.378 116.892 393.406 116.804 393.457 116.728L394.98 113.945C395.034 113.841 395.054 113.722 395.037 113.606C395.019 113.489 394.965 113.381 394.882 113.297C394.284 112.659 393.462 111.436 393.471 110.174C393.471 108.021 394.537 106.038 397.106 106.038C399.675 106.038 400.731 108.021 400.741 110.174C400.741 111.436 399.928 112.659 399.33 113.297C399.247 113.381 399.193 113.489 399.175 113.606C399.158 113.722 399.178 113.841 399.232 113.945L400.755 116.728C400.806 116.804 400.834 116.892 400.836 116.984C400.839 117.075 400.815 117.165 400.769 117.244C400.723 117.322 400.656 117.387 400.575 117.429C400.494 117.471 400.403 117.49 400.312 117.483H397.106Z" fill="#79A617"/>
<path d="M464.674 203.123H384.507C382.454 203.123 380.79 204.789 380.79 206.845V260.129C380.79 262.185 382.454 263.851 384.507 263.851H464.674C466.727 263.851 468.391 262.185 468.391 260.129V206.845C468.391 204.789 466.727 203.123 464.674 203.123Z" fill="#2E3A59"/>
<path d="M449.214 223.355H469.782C470.405 223.355 471.002 223.603 471.443 224.044C471.883 224.485 472.131 225.083 472.131 225.707V241.261C472.131 241.885 471.883 242.483 471.443 242.924C471.002 243.365 470.405 243.613 469.782 243.613H449.214C447.463 243.613 445.785 242.916 444.547 241.677C443.31 240.438 442.614 238.757 442.614 237.005V229.963C442.614 228.211 443.31 226.53 444.547 225.291C445.785 224.051 447.463 223.355 449.214 223.355Z" fill="#192038"/>
</svg>
